<?xml version="1.0" encoding="UTF-8"?>
<svg width="97px" height="280px" viewBox="0 0 97 280" version="1.1" xmlns="http://www.w3.org/2000/svg" xmlns:xlink="http://www.w3.org/1999/xlink">
    <!-- Generator: Sketch Beta 47 (45359) - http://www.bohemiancoding.com/sketch -->
    <title>logo</title>
    <desc>Created with Sketch Beta.</desc>
    <defs></defs>
    <g id="Symbols" stroke="none" stroke-width="1" fill="none" fill-rule="evenodd">
        <g id="navigation" fill="#F8F4F1">
            <g id="logo">
                <polygon id="Fill-1" points="92.2050318 0 78.7231305 2.15291851 78.7585992 56.4544486 67.4668894 58.616253 67.3554164 3.33093052 53.8747819 5.48257962 53.952053 94.1838377 67.4364877 92.0321886 67.4035525 71.4829876 78.7699999 70.3024368 78.7953346 90.855446 92.2848363 88.7025275"></polygon>
                <path d="M32.6661539,62.2725332 L19.5731415,64.4305293 L18.9955086,29.1815664 L32.6661539,26.2339975 L32.6661539,62.2725332 Z M44.6229016,6.30426839 L6.33825434,13.5272084 L6.33825434,98.6411153 L20.564998,96.9794582 L19.5148715,77.7999501 L33.6846119,75.0580256 L33.9328927,95.9829718 L46.6078813,94.8214621 L44.6229016,6.30426839 Z" id="Fill-2"></path>
                <polygon id="Fill-3" points="31.2645074 195.729108 31.2366392 175.179907 19.8727252 176.357919 19.89806 196.90712 6.41742552 199.060039 6.34395467 110.357511 19.8233224 108.205862 19.9347954 163.489915 31.2239718 161.325572 31.1872363 107.029119 44.6704043 104.876201 44.7489421 193.577459"></polygon>
                <path d="M78.3404487,155.19115 L65.2525033,157.349147 L64.6748704,118.111699 L78.3404487,115.1654 L78.3404487,155.19115 Z M90.2997299,99.2216162 L52.0163494,106.444556 L52.0163494,191.558463 L66.243093,189.896806 L65.1916998,170.716029 L79.3614402,167.976643 L79.6122545,188.89905 L92.2847096,187.737541 L90.2997299,99.2216162 Z" id="Fill-4"></path>
                <g id="Group-11" transform="translate(0.000000, 200.679678)">
                    <path d="M23.5162461,27.4900782 L21.377991,27.7947365 L21.174046,42.1289085 L23.0285516,41.8559855 C24.1255475,41.6973093 24.913459,40.6195806 24.9400605,39.0835951 L25.0756016,29.4208501 C25.1060033,27.886134 24.4472991,27.3567902 23.5162461,27.4900782" id="Fill-5"></path>
                    <path d="M93.3409165,17.2208092 L87.7520648,18.0230761 L87.5519201,31.5575201 L91.611818,30.9748612 L91.5548147,34.2118554 L87.5025172,34.799592 L87.280838,49.4104953 L92.8785568,48.6056897 L92.8342209,51.8439533 L83.9442479,53.1235181 L84.5130136,15.2544939 L93.3827188,13.9761986 L93.3409165,17.2208092 Z M77.8068983,54.0044883 L74.3056323,54.5084438 L71.0729148,17.1852658 L74.5361787,16.6914655 L76.1918063,45.1617817 L79.3003834,16.0072538 L82.4190944,15.555344 L77.8068983,54.0044883 Z M68.3747611,55.3627564 L65.0267704,55.8438626 L65.586669,17.9824549 L68.9333929,17.4988099 L68.3747611,55.3627564 Z M63.3356741,21.6447013 L60.033286,22.1194605 L59.5354576,56.6334353 L56.2546041,57.1056557 L56.7549659,22.5916808 L53.1928964,23.1070611 L53.2372323,19.7532812 L63.3825434,18.2934603 L63.3356741,21.6447013 Z M49.2394045,58.1148362 L48.7884455,50.5186898 L45.1807734,51.0378783 L44.2927895,58.8206279 L41.283018,59.2598436 L45.9572843,20.8018134 L49.4053473,20.3080131 L52.6912678,57.6184971 L49.2394045,58.1148362 Z M40.3671659,24.8410745 L34.774514,25.6458801 L34.5743693,39.1777853 L38.6317337,38.5951264 L38.5810641,41.8321206 L34.5186328,42.4135101 L34.3070874,57.0320299 L39.8883386,56.2284937 L39.8554034,59.4604103 L30.9666971,60.7399751 L31.5240622,22.877298 L40.4115017,21.5990026 L40.3671659,24.8410745 Z M28.7131688,61.3518304 L27.5085001,61.5244701 C25.5881241,61.8012014 24.7723443,61.1804602 24.8154134,58.3953757 L24.9762892,47.3654766 C25.0054242,45.8282217 24.2529814,44.9662926 23.0964488,45.1351241 L21.1228698,45.4207412 L20.8682553,62.1959878 L17.5253315,62.6732857 L18.0928305,24.8106086 L23.6183452,24.0184971 C25.7642008,23.704953 28.4332195,24.4577128 28.3673491,29.2852771 L28.2343415,38.1051343 C28.1938058,40.3799161 27.6275736,42.1596282 25.9162095,43.1992746 C27.606039,43.7463901 28.2432087,45.3661566 28.2102734,47.5787374 L28.0531978,57.8673014 C28.037997,58.8955231 28.1406028,59.3309305 28.7473707,59.2446107 L28.7131688,61.3518304 Z M15.09826,38.460569 L12.2379637,38.8705882 L12.3557704,30.9685141 C12.3747715,29.7194152 11.6337293,28.7470475 10.306187,28.9361895 C8.94444278,29.1342174 8.15906472,30.3211153 8.14133038,31.5765613 L7.74990808,58.7546186 C7.72584004,60.0570328 8.47574942,60.9735464 9.84762756,60.7755185 C11.154902,60.5838377 11.9466138,59.4489856 11.9580144,58.1427632 L12.0783546,50.1822963 L14.9247167,49.7710076 L14.8246444,57.0523405 C14.7638409,60.9202312 12.5926506,63.8398731 9.6335487,64.2663947 C6.67318009,64.6903774 4.34744762,62.4219426 4.40951782,58.5489743 L4.78067229,32.7355321 C4.83767554,28.9298425 7.23561212,25.9188031 10.1959807,25.4948204 C13.1550826,25.0606823 15.2528021,27.4294004 15.1957988,31.2376289 L15.09826,38.460569 Z M96.7433769,0.149790321 L0,12.3919755 L0,78.8938003 L96.7839126,66.9410405 L96.7433769,0.149790321 Z" id="Fill-7"></path>
                    <polygon id="Fill-9" points="45.5530679 47.6370033 48.5729733 47.2015958 47.5127129 29.8246492"></polygon>
                </g>
            </g>
        </g>
    </g>
</svg>